<?xml version="1.0" standalone="no"?>
<!DOCTYPE svg PUBLIC "-//W3C//DTD SVG 20010904//EN"
 "http://www.w3.org/TR/2001/REC-SVG-20010904/DTD/svg10.dtd">
<svg version="1.0" xmlns="http://www.w3.org/2000/svg"
 width="3127.000000pt" height="3127.000000pt" viewBox="0 0 3127.000000 3127.000000"
 preserveAspectRatio="xMidYMid meet">
<metadata>
Created by potrace 1.11, written by Peter Selinger 2001-2013
</metadata>
<g transform="translate(0.000000,3127.000000) scale(0.100000,-0.100000)"
fill="#000000" stroke="none">
<path d="M15367 30554 c-1 -1 -99 -5 -217 -9 -118 -3 -237 -8 -265 -10 -27 -2
-97 -6 -155 -10 -58 -4 -121 -8 -140 -10 -19 -1 -73 -6 -120 -9 -47 -4 -101
-9 -120 -11 -92 -10 -141 -15 -210 -20 -41 -4 -86 -8 -100 -10 -14 -2 -52 -7
-85 -10 -33 -3 -73 -8 -90 -10 -16 -3 -84 -12 -150 -20 -146 -19 -176 -23
-240 -35 -27 -5 -70 -12 -95 -15 -25 -4 -110 -17 -190 -31 -200 -34 -191 -32
-230 -39 -30 -5 -243 -46 -305 -59 -424 -90 -793 -186 -1205 -313 -250 -77
-754 -250 -907 -311 -145 -58 -474 -191 -503 -204 -14 -6 -34 -14 -45 -19 -11
-4 -51 -22 -90 -40 -38 -17 -124 -56 -190 -86 -252 -114 -285 -130 -450 -213
-218 -110 -509 -262 -605 -317 -34 -20 -279 -165 -310 -184 -8 -5 -78 -46
-155 -90 -208 -122 -747 -482 -1014 -678 -216 -159 -399 -297 -411 -311 -3 -3
-86 -70 -185 -149 -99 -79 -211 -171 -250 -205 -38 -35 -137 -122 -220 -196
-82 -73 -188 -167 -235 -209 -103 -93 -627 -614 -735 -731 -43 -47 -101 -110
-129 -140 -28 -30 -98 -109 -156 -175 -58 -66 -107 -122 -111 -125 -60 -55
-517 -622 -729 -905 -226 -303 -526 -738 -644 -935 -15 -25 -54 -88 -87 -140
-33 -52 -63 -102 -66 -110 -4 -8 -21 -37 -38 -65 -64 -101 -262 -451 -387
-685 -47 -86 -241 -471 -243 -480 -1 -3 -30 -63 -64 -135 -90 -187 -189 -406
-266 -590 -37 -88 -73 -173 -80 -190 -95 -213 -319 -832 -448 -1240 -75 -235
-198 -663 -232 -805 -2 -8 -17 -70 -34 -137 -17 -67 -32 -132 -35 -145 -2 -13
-16 -70 -30 -128 -13 -58 -43 -194 -65 -303 -39 -190 -44 -215 -56 -289 -3
-18 -8 -40 -10 -48 -2 -8 -6 -31 -9 -50 -4 -19 -17 -95 -30 -167 -13 -73 -20
-133 -16 -133 4 0 13 39 20 88 8 48 15 92 16 97 1 6 19 93 39 195 20 102 45
222 56 267 10 44 21 94 23 110 3 15 15 66 27 113 11 47 22 92 24 100 2 8 19
78 39 155 20 77 39 151 42 165 3 14 11 45 19 70 8 25 37 124 65 220 75 253
238 735 240 708 0 -3 -12 -60 -26 -125 -14 -65 -28 -129 -30 -143 -6 -33 -34
-161 -40 -180 -3 -9 -2 -11 4 -5 10 12 44 100 111 290 51 146 171 472 190 515
5 14 21 54 35 90 13 36 38 101 54 145 62 162 343 808 349 801 2 -2 -3 -19 -11
-37 -40 -91 -85 -223 -79 -232 4 -6 1 -7 -7 -2 -9 6 -10 2 -5 -15 4 -14 3 -20
-3 -16 -5 3 -13 -1 -16 -10 -4 -9 -2 -13 5 -8 6 4 6 -3 -2 -17 -7 -13 -14 -28
-15 -34 -1 -5 -17 -48 -34 -95 -186 -500 -284 -788 -416 -1230 -87 -288 -190
-680 -229 -870 -2 -8 -14 -67 -28 -130 -30 -133 -104 -498 -112 -550 -3 -19
-17 -96 -30 -170 -30 -168 -68 -413 -80 -520 -6 -49 -13 -109 -20 -150 -2 -19
-7 -55 -9 -80 -3 -25 -7 -65 -10 -90 -3 -25 -8 -74 -10 -110 -3 -36 -8 -101
-12 -145 -4 -44 -8 -96 -9 -115 -1 -19 -6 -70 -10 -114 -25 -261 -37 -878 -22
-1145 13 -240 26 -326 47 -326 17 0 35 76 45 185 4 36 8 81 10 100 2 19 6 71
10 115 3 44 8 103 10 130 3 28 7 91 10 140 7 128 17 256 30 400 3 33 8 85 10
115 3 30 7 87 10 125 3 39 8 86 10 105 8 67 15 135 20 190 8 84 15 152 20 180
3 14 7 52 10 85 3 33 7 69 9 80 2 11 7 47 11 80 4 32 8 66 10 75 1 8 6 40 9
71 4 31 8 65 10 75 2 11 7 42 10 69 4 28 11 75 16 105 5 30 12 73 15 95 3 23
7 50 9 60 2 11 7 40 11 65 4 25 9 54 11 65 3 11 7 36 10 55 3 19 7 42 9 50 2
8 7 31 10 50 6 33 52 268 60 300 2 8 13 60 24 116 12 55 23 109 26 120 63 295
214 868 320 1209 51 165 161 498 174 530 5 11 33 85 61 165 51 141 173 452
211 537 11 23 19 44 19 47 0 23 370 820 377 812 2 -2 -3 -19 -11 -37 -56 -121
-278 -672 -327 -809 -33 -91 -64 -176 -70 -190 -83 -192 -411 -1218 -454
-1420 -2 -8 -20 -80 -40 -160 -20 -80 -38 -152 -40 -160 -2 -8 -15 -64 -30
-125 -14 -60 -46 -201 -71 -313 -38 -172 -56 -265 -108 -557 -3 -16 -8 -41
-11 -55 -10 -45 -43 -244 -49 -292 -12 -94 -18 -143 -21 -159 -2 -9 -6 -40
-10 -70 -3 -30 -8 -65 -10 -79 -18 -117 -47 -375 -60 -540 -3 -41 -8 -97 -10
-125 -6 -68 -15 -181 -20 -235 -19 -240 -28 -1304 -12 -1550 13 -214 19 -285
23 -289 2 -2 5 83 5 190 1 107 2 212 4 234 3 53 15 313 20 445 5 112 15 287
20 360 2 25 6 101 10 170 8 181 14 287 20 355 2 33 7 101 10 150 3 50 8 104
10 120 2 17 7 66 11 110 3 44 7 82 9 85 1 3 6 45 10 95 4 49 8 92 10 95 2 3 6
34 9 70 4 36 8 76 10 90 3 14 7 45 10 70 3 25 8 54 10 65 2 11 7 47 11 80 3
32 8 62 10 65 1 3 6 32 10 65 3 32 8 62 10 65 1 3 6 28 10 55 13 91 14 98 30
175 2 13 7 42 11 65 3 22 14 83 25 135 11 52 22 111 25 130 3 19 8 38 9 41 2
3 9 32 14 65 6 32 31 147 56 254 25 107 48 204 50 216 21 95 109 418 236 869
11 39 49 165 85 280 246 790 520 1440 856 2025 105 183 199 360 326 614 95
189 181 344 218 393 13 17 24 34 24 37 0 5 49 77 228 340 52 77 205 290 339
475 134 185 251 345 259 356 8 11 46 64 85 118 39 53 72 97 74 97 3 0 2 -8 -2
-17 -3 -10 14 9 38 42 24 33 51 69 60 80 9 11 52 63 95 115 43 52 88 106 100
120 69 80 153 181 245 297 57 71 78 90 107 97 30 7 85 58 292 265 291 292 396
392 674 646 52 47 164 145 196 171 19 16 37 31 40 34 3 3 34 30 70 60 36 30
67 57 70 60 9 9 151 124 265 214 61 48 117 92 125 99 143 114 583 428 815 583
657 440 1421 852 2162 1168 637 271 1187 459 1973 672 254 69 838 200 1025
229 103 16 106 17 260 43 110 19 207 33 325 47 40 5 209 33 235 39 6 2 28 6
50 11 22 4 47 9 55 11 108 24 212 45 240 48 216 30 1086 36 1542 11 46 -3 137
-7 203 -10 66 -3 138 -7 160 -9 73 -8 222 -17 307 -21 81 -3 289 -13 438 -21
156 -8 205 -15 368 -50 155 -34 220 -47 297 -60 128 -22 315 -54 340 -59 39
-7 133 -25 165 -31 14 -2 36 -7 50 -9 14 -3 34 -7 45 -9 74 -14 186 -39 220
-47 42 -12 64 -17 105 -25 19 -4 229 -56 320 -79 8 -2 42 -10 75 -19 33 -8 92
-24 130 -35 39 -10 97 -27 129 -35 240 -66 748 -236 1051 -351 127 -48 259
-98 295 -110 99 -34 389 -155 535 -223 355 -164 496 -232 615 -297 52 -29 162
-87 244 -130 137 -71 320 -174 406 -230 19 -12 100 -61 180 -108 308 -182 906
-592 1245 -854 6 -4 40 -30 75 -58 81 -62 463 -366 470 -374 6 -7 53 -47 125
-106 27 -22 59 -49 71 -60 12 -11 59 -53 105 -94 96 -85 623 -610 718 -716 40
-43 61 -61 57 -47 -3 12 -9 32 -12 45 -3 12 -29 47 -58 77 -43 47 -41 45 19
-12 39 -36 101 -95 139 -130 132 -122 291 -325 932 -1189 99 -134 200 -273
225 -309 24 -36 47 -67 50 -70 12 -10 289 -430 396 -600 171 -273 306 -504
480 -825 96 -177 339 -671 412 -840 119 -273 125 -284 133 -234 9 60 298 -761
446 -1266 11 -38 39 -131 61 -205 127 -425 247 -912 326 -1320 3 -14 8 -36 10
-50 3 -14 12 -65 21 -115 8 -49 17 -92 19 -95 1 -3 6 -27 9 -55 4 -27 9 -57
11 -65 2 -8 6 -33 9 -55 4 -22 8 -51 11 -65 2 -14 7 -43 10 -65 3 -22 12 -83
20 -135 13 -92 19 -138 30 -237 3 -27 8 -59 10 -73 3 -14 7 -52 10 -85 8 -78
13 -122 19 -165 3 -19 8 -62 11 -95 4 -32 8 -66 10 -75 3 -17 23 -181 30 -250
3 -25 7 -61 10 -80 3 -19 7 -55 9 -80 3 -25 9 -76 14 -115 5 -38 8 -92 7 -120
-1 -27 -3 -86 -4 -129 -1 -99 -12 -94 -16 8 -2 41 -5 79 -8 83 -3 5 -10 42
-16 83 -6 41 -12 84 -15 95 -3 17 -8 53 -22 155 -2 14 -7 54 -10 90 -4 36 -8
72 -9 80 -2 8 -4 32 -4 53 -1 20 -6 37 -12 37 -5 0 -8 -3 -6 -8 6 -8 13 -96
32 -362 18 -259 29 -591 29 -925 0 -390 -11 -694 -39 -1062 -1 -18 2 -33 7
-33 4 0 8 17 9 38 0 20 2 51 4 67 11 116 22 267 31 407 11 187 13 224 13 286
1 34 5 62 10 62 8 0 8 -58 -3 -350 -7 -167 -14 -282 -21 -345 -2 -22 -7 -74
-10 -115 -3 -41 -7 -97 -10 -125 -5 -49 -8 -95 -20 -245 -3 -41 -8 -86 -10
-100 -2 -14 -7 -54 -10 -90 -4 -36 -8 -67 -10 -70 -2 -3 -6 -39 -10 -80 -4
-41 -8 -77 -10 -80 -2 -3 -6 -39 -10 -80 -4 -41 -8 -77 -10 -80 -2 -3 -6 -32
-9 -65 -10 -89 -19 -82 -12 10 4 44 9 105 11 135 3 30 7 73 10 95 2 22 7 74
11 115 3 41 7 85 9 98 2 12 0 22 -4 22 -4 0 -8 -18 -9 -41 -1 -22 -4 -52 -7
-67 -4 -24 -16 -124 -30 -244 -5 -38 -9 -66 -20 -133 -2 -11 -11 -69 -20 -130
-9 -60 -18 -121 -20 -135 -2 -14 -10 -58 -18 -98 -22 -113 -3 -72 33 73 44
172 49 178 23 25 -2 -14 -6 -32 -8 -40 -2 -8 -6 -28 -9 -45 -22 -133 -38 -227
-46 -265 -5 -25 -12 -56 -14 -70 -15 -85 -41 -208 -61 -295 -13 -55 -26 -111
-29 -125 -2 -14 -12 -56 -21 -95 -9 -38 -19 -81 -21 -94 -5 -23 -71 -280 -127
-491 -73 -273 -337 -1089 -376 -1160 -4 -8 -29 -85 -55 -170 -49 -160 -149
-404 -281 -686 -19 -41 -35 -77 -35 -80 0 -13 -337 -678 -360 -709 -4 -5 -33
-59 -65 -120 -56 -106 -171 -313 -214 -385 -11 -19 -24 -42 -28 -50 -37 -83
-455 -734 -634 -990 -138 -197 -485 -659 -585 -777 -69 -83 -113 -135 -194
-233 -132 -160 -229 -273 -254 -295 -6 -5 -65 -71 -131 -145 -66 -74 -172
-189 -236 -255 -245 -252 -273 -295 -128 -193 78 54 242 185 295 234 39 36
189 172 220 199 133 115 223 201 470 451 159 160 344 349 411 420 67 71 124
126 128 123 8 -8 -99 -195 -202 -353 -201 -308 -478 -657 -817 -1031 -99 -110
-543 -556 -646 -650 -71 -65 -203 -183 -241 -216 -13 -11 -51 -44 -84 -74
-322 -285 -774 -639 -1185 -926 -154 -108 -458 -317 -495 -339 -13 -8 -109
-68 -212 -132 -268 -166 -513 -311 -700 -413 -88 -49 -172 -97 -185 -107 -23
-19 -23 -19 12 -2 19 10 37 19 40 19 13 4 67 29 215 100 88 43 196 94 240 115
44 21 113 54 154 74 41 20 75 35 77 33 11 -11 -398 -284 -418 -279 -5 1 -8 -2
-8 -8 0 -5 -7 -10 -15 -10 -8 0 -15 -5 -15 -11 0 -5 -5 -7 -10 -4 -6 3 -13 -1
-16 -9 -3 -9 -10 -13 -15 -10 -5 3 -9 0 -9 -7 0 -7 -3 -10 -6 -7 -3 4 -15 -3
-26 -14 -11 -11 -26 -17 -34 -14 -8 3 -12 2 -9 -4 5 -8 -52 -45 -163 -105 -20
-11 -71 -39 -112 -61 -309 -169 -708 -369 -1053 -526 -37 -17 -66 -33 -64 -34
5 -6 636 251 802 326 22 10 67 30 100 45 189 83 684 326 875 430 105 58 485
273 546 310 19 11 93 56 166 100 267 160 842 553 1113 760 44 34 100 77 125
96 78 59 293 231 331 263 19 17 46 40 60 51 63 52 269 230 329 285 9 8 61 55
116 105 493 446 1048 1037 1515 1615 351 433 785 1045 1020 1434 35 58 77 127
93 153 43 72 247 428 291 508 21 39 50 93 66 121 15 28 86 167 158 310 118
236 153 309 257 531 18 39 67 152 109 250 42 98 84 196 94 218 40 88 143 356
139 360 -2 3 -28 -55 -58 -128 -29 -72 -68 -165 -87 -205 -18 -41 -33 -75 -33
-77 0 -2 -15 -36 -34 -77 -18 -40 -51 -111 -71 -158 -76 -173 -325 -663 -463
-915 -61 -111 -281 -490 -316 -545 -13 -19 -67 -105 -121 -190 -156 -247 -450
-679 -483 -710 -8 -8 0 8 20 35 148 211 388 580 532 820 43 72 82 137 87 145
123 205 308 551 463 865 191 386 190 383 299 631 211 476 416 1019 581 1544
42 136 165 559 181 625 4 17 9 37 11 45 16 60 117 474 125 510 5 25 12 56 15
70 3 13 12 56 21 95 8 38 17 81 20 95 45 231 73 373 78 405 3 22 16 105 30
185 33 200 31 187 74 520 17 129 33 267 37 305 3 39 8 72 11 75 8 8 -6 -149
-33 -360 -13 -107 -26 -214 -29 -237 -10 -82 -16 -138 -20 -163 -2 -14 -7 -45
-10 -70 -8 -64 -83 -515 -95 -575 -16 -78 -32 -161 -46 -245 -9 -48 -95 -416
-130 -554 -19 -76 -33 -143 -31 -149 3 -9 93 339 112 433 2 8 17 74 33 145 16
72 32 146 36 165 3 19 9 46 12 60 3 14 7 36 10 50 3 14 9 44 15 68 5 23 12 59
15 80 3 20 9 55 14 77 5 22 11 54 14 70 3 17 12 73 21 125 9 52 18 109 21 125
2 17 9 55 14 85 5 30 12 75 15 100 3 25 8 56 10 70 7 45 24 174 30 218 3 23 7
60 10 82 9 64 12 91 20 160 3 36 8 76 10 90 2 14 7 59 10 100 3 41 8 86 10
100 2 14 7 57 10 95 3 39 8 97 10 130 11 126 14 163 21 270 3 61 8 128 9 150
32 468 23 1318 -20 1870 -3 33 -7 94 -10 135 -3 41 -7 93 -10 115 -2 22 -7 65
-10 95 -19 195 -26 269 -30 300 -3 19 -7 58 -10 85 -3 28 -8 68 -11 90 -3 22
-7 51 -9 65 -2 14 -7 50 -10 80 -3 30 -8 66 -10 80 -19 128 -27 192 -23 195 2
2 19 -83 36 -189 18 -106 34 -202 36 -212 2 -11 7 -41 10 -69 4 -27 8 -61 11
-75 11 -61 15 -89 21 -140 3 -30 7 -66 9 -80 6 -36 15 -109 19 -150 2 -19 7
-55 10 -80 3 -25 8 -72 11 -105 3 -33 8 -76 10 -95 5 -40 15 -151 20 -225 2
-27 6 -84 9 -125 27 -371 31 -503 30 -1045 0 -539 -5 -702 -29 -1000 -2 -33
-7 -98 -11 -145 -11 -156 -23 -272 -30 -310 -3 -18 -2 -21 5 -10 4 8 11 49 15
91 4 42 8 84 10 95 2 10 7 60 10 109 4 50 9 106 11 125 6 47 13 142 20 270 4
58 8 132 10 165 23 354 23 1205 0 1540 -2 34 -12 217 -20 390 -3 61 -15 235
-20 290 -3 22 -7 69 -10 105 -3 36 -7 85 -10 110 -2 25 -7 70 -10 100 -3 30
-7 75 -10 100 -2 25 -7 72 -10 105 -4 33 -8 71 -10 85 -2 14 -6 59 -10 100 -4
41 -8 87 -11 103 -2 15 -6 39 -8 55 -4 24 -30 198 -41 277 -18 122 -48 318
-59 380 -7 41 -10 72 -6 70 4 -3 11 -26 14 -52 9 -54 12 -74 22 -123 9 -46 11
-53 24 -130 6 -36 15 -85 20 -110 5 -25 12 -63 15 -85 3 -22 14 -94 25 -160
10 -66 21 -140 25 -165 3 -25 8 -56 10 -70 2 -14 7 -50 10 -80 3 -30 10 -77
15 -105 5 -27 11 -79 15 -115 3 -36 8 -72 10 -80 2 -8 6 -46 10 -85 6 -67 8
-88 19 -200 12 -108 19 -183 31 -325 3 -36 8 -84 10 -108 2 -23 7 -93 10 -155
4 -61 9 -114 12 -117 5 -5 -5 251 -12 320 -2 19 -6 73 -10 120 -12 174 -16
216 -20 255 -3 22 -7 65 -10 95 -12 134 -17 187 -21 210 -2 14 -6 52 -9 85 -5
53 -17 145 -30 243 -3 18 -8 54 -11 80 -2 26 -7 58 -10 72 -2 14 -7 45 -9 70
-3 25 -7 52 -10 60 -2 8 -7 38 -11 65 -7 54 -29 191 -39 240 -4 17 -12 68 -20
115 -7 47 -16 96 -19 110 -9 39 -15 72 -21 110 -3 19 -10 51 -15 70 -5 19 -11
49 -14 65 -9 54 -16 90 -23 115 -3 14 -7 31 -9 39 -51 258 -175 741 -290 1136
-8 28 -16 55 -18 60 -12 46 -66 217 -108 338 -27 82 -48 150 -46 153 8 8 237
-698 287 -886 11 -41 36 -131 56 -200 19 -69 37 -134 40 -145 2 -11 28 -121
59 -245 46 -188 69 -294 122 -545 14 -71 25 -125 30 -159 3 -21 8 -48 10 -60
4 -18 29 -163 64 -371 5 -33 12 -80 15 -105 3 -25 8 -52 10 -60 2 -8 6 -37 10
-65 3 -27 8 -63 10 -80 3 -16 12 -88 20 -160 9 -71 17 -146 20 -165 4 -34 20
-191 30 -295 2 -27 7 -86 10 -130 4 -44 8 -98 10 -120 2 -22 6 -92 10 -155 3
-63 8 -149 11 -190 9 -157 15 -910 7 -910 -5 0 -10 51 -11 112 -2 62 -5 115
-8 117 -2 2 -4 -65 -4 -150 -1 -282 -12 -635 -25 -829 -3 -36 -7 -108 -10
-160 -6 -100 -12 -186 -20 -260 -2 -25 -7 -74 -10 -110 -8 -92 -15 -159 -20
-200 -2 -19 -7 -60 -10 -90 -7 -67 -30 -252 -40 -315 -2 -16 -7 -52 -10 -80
-4 -27 -8 -57 -10 -65 -3 -8 -7 -38 -10 -66 -3 -28 -8 -61 -10 -75 -3 -13 -7
-35 -9 -49 -3 -14 -8 -43 -11 -65 -3 -22 -10 -67 -16 -100 -5 -33 -12 -71 -14
-85 -3 -14 -10 -52 -16 -85 -6 -33 -13 -71 -15 -85 -3 -14 -21 -104 -40 -200
-20 -96 -38 -186 -41 -200 -2 -13 -13 -63 -24 -110 -11 -47 -22 -92 -24 -100
-109 -500 -342 -1281 -543 -1825 -72 -195 -182 -477 -207 -530 -7 -16 -27 -64
-43 -105 -34 -84 -127 -298 -176 -405 -18 -38 -48 -104 -67 -145 -36 -81 -295
-596 -349 -695 -86 -158 -110 -201 -195 -350 -51 -88 -106 -182 -123 -210 -17
-27 -52 -86 -78 -130 -116 -197 -357 -566 -532 -815 -128 -181 -156 -220 -315
-433 -53 -71 -20 -37 60 60 276 340 659 892 886 1278 217 369 348 611 521 960
130 264 177 362 251 535 18 41 44 100 57 130 13 30 33 75 43 100 10 25 24 59
31 75 12 30 94 234 139 350 150 382 341 950 490 1454 37 123 68 231 70 240 2
9 15 57 29 106 14 50 41 146 60 215 47 169 45 138 -4 -67 -58 -240 -64 -264
-100 -398 -18 -66 -33 -127 -35 -135 -7 -29 -95 -335 -104 -360 -5 -14 -19
-59 -31 -100 -47 -162 -227 -690 -260 -765 -5 -11 -20 -51 -33 -90 -25 -71
-138 -355 -162 -410 -8 -16 -37 -86 -65 -155 -29 -69 -65 -152 -80 -185 -15
-33 -49 -107 -75 -165 -117 -260 -350 -721 -545 -1075 -203 -367 -557 -925
-828 -1305 -505 -706 -973 -1260 -1562 -1850 -300 -300 -467 -458 -710 -670
-41 -36 -95 -83 -120 -106 -111 -100 -517 -428 -690 -557 -63 -48 -119 -90
-125 -95 -5 -4 -82 -60 -170 -123 -264 -191 -447 -315 -790 -532 -487 -310
-1225 -704 -1750 -934 -44 -20 -100 -44 -125 -56 -305 -137 -721 -298 -1160
-448 -233 -80 -273 -93 -495 -160 -179 -53 -526 -149 -595 -164 -8 -2 -89 -22
-180 -44 -91 -23 -178 -44 -195 -47 -16 -3 -46 -9 -65 -14 -40 -10 -181 -40
-360 -76 -69 -14 -132 -27 -140 -29 -8 -1 -37 -6 -65 -9 -27 -4 -57 -9 -65
-11 -8 -2 -31 -7 -50 -10 -19 -3 -87 -14 -150 -25 -63 -11 -151 -24 -195 -31
-44 -6 -87 -12 -95 -14 -8 -2 -37 -6 -65 -9 -27 -3 -66 -9 -85 -11 -19 -3 -51
-7 -70 -9 -66 -7 -155 -17 -178 -21 -13 -2 -53 -7 -90 -10 -37 -3 -78 -8 -92
-10 -14 -3 -54 -7 -90 -10 -36 -3 -85 -7 -110 -10 -181 -18 -468 -37 -765 -50
-170 -8 -875 -9 -1035 -1 -69 3 -177 8 -240 11 -124 5 -252 13 -340 20 -137
11 -309 26 -345 30 -22 2 -71 7 -110 10 -38 4 -81 8 -95 10 -14 2 -47 7 -75
10 -27 3 -66 8 -85 10 -47 6 -128 16 -165 20 -64 7 -121 15 -145 19 -14 3 -45
8 -70 11 -25 3 -69 10 -98 16 -30 6 -56 9 -58 6 -3 -2 37 -12 88 -21 51 -10
113 -21 138 -26 43 -9 79 -14 165 -24 22 -3 119 -16 215 -30 96 -14 202 -28
235 -32 33 -3 68 -8 79 -10 10 -2 53 -6 95 -9 42 -3 92 -8 111 -10 46 -6 118
-13 205 -20 39 -3 93 -7 120 -10 513 -43 1496 -53 1930 -20 22 1 85 6 140 9
55 4 120 9 145 11 25 2 86 7 135 10 50 3 113 8 140 10 28 3 75 8 105 11 30 3
71 7 90 9 19 3 58 7 85 10 28 3 66 7 85 10 19 3 51 7 70 9 121 14 151 18 200
26 30 5 75 12 100 14 40 5 248 38 320 52 14 2 41 7 60 10 19 3 46 7 60 10 14
2 41 7 60 9 19 3 44 8 56 10 12 3 39 7 60 11 62 10 219 41 339 67 159 36 296
66 325 71 22 5 179 41 220 51 8 2 66 18 128 35 63 17 120 29 128 26 10 -4 12
-2 8 6 -5 7 0 9 14 6 12 -4 20 -3 17 2 -6 9 53 22 66 14 5 -3 9 0 9 7 0 6 8 9
20 6 11 -3 20 -1 20 5 0 6 7 7 16 4 9 -4 22 -2 29 4 7 6 21 13 31 15 32 6 165
46 264 78 52 17 104 32 115 34 20 3 43 11 420 141 174 61 580 218 700 272 131
58 208 90 211 87 4 -4 -101 -51 -341 -154 -82 -35 -159 -68 -170 -73 -270
-121 -1288 -471 -1500 -515 -5 -2 -43 -13 -84 -25 -41 -12 -83 -23 -93 -25
-11 -2 -28 -7 -38 -10 -10 -3 -27 -8 -37 -11 -355 -91 -469 -119 -604 -149
-90 -21 -171 -39 -179 -41 -28 -6 -275 -55 -425 -84 -172 -33 -533 -91 -745
-119 -241 -33 -333 -43 -485 -56 -123 -11 -169 -15 -195 -20 -14 -2 -59 -7
-100 -10 -41 -4 -91 -8 -110 -10 -39 -3 -155 -13 -240 -20 -30 -2 -98 -7 -150
-10 -52 -3 -108 -7 -125 -10 -16 -2 -55 -7 -86 -10 -31 -3 -65 -7 -75 -9 -11
-2 -38 -7 -62 -11 -25 -4 -41 -12 -39 -18 6 -19 97 -33 272 -43 50 -3 122 -7
160 -9 83 -6 475 -6 525 0 19 2 98 6 175 10 77 3 158 8 180 9 22 2 79 7 127
10 49 4 96 9 105 10 10 2 52 7 93 10 41 4 86 9 100 11 31 5 88 13 159 20 30 3
57 7 60 9 3 2 33 7 66 10 33 4 89 11 125 17 79 12 102 16 160 24 62 9 91 14
120 20 14 3 41 8 60 11 19 2 46 7 60 10 55 10 69 13 101 18 19 3 45 8 59 11
14 3 41 8 60 11 34 6 170 34 355 73 119 25 287 65 460 108 77 19 148 36 158
38 24 5 355 99 482 136 273 82 622 196 825 272 52 19 127 46 165 60 75 27 340
131 390 152 17 8 86 37 155 65 69 29 143 60 165 70 225 100 346 155 430 195
117 55 514 254 565 282 65 37 145 80 208 114 35 19 71 39 80 44 9 6 53 30 97
54 434 240 1200 740 1586 1035 58 45 121 92 139 106 39 30 336 265 400 318 64
53 324 275 330 281 3 3 41 37 85 76 44 38 100 88 125 111 25 23 83 77 130 120
102 93 632 624 745 745 144 154 253 276 455 509 105 121 334 404 445 550 44
58 82 107 85 110 12 10 358 490 425 588 531 782 1007 1646 1352 2457 65 153
78 184 98 229 8 19 15 37 15 41 0 4 7 21 15 38 20 44 92 230 186 486 77 206
218 647 299 931 94 332 240 925 263 1065 4 24 55 268 73 350 6 26 63 371 69
412 2 18 9 58 14 90 6 32 13 76 16 98 3 22 10 65 15 95 15 86 18 111 25 180 4
36 8 76 10 90 4 28 12 98 20 175 3 28 7 66 10 85 2 19 7 60 10 90 3 30 8 71
10 90 9 76 15 139 20 222 3 48 8 104 10 125 2 21 7 99 10 173 4 74 8 153 10
175 23 272 23 1229 0 1595 -1 30 -6 114 -10 185 -3 72 -8 146 -10 165 -2 19
-6 73 -10 120 -6 89 -12 161 -20 245 -2 28 -7 77 -10 110 -6 60 -9 89 -20 180
-3 28 -8 70 -10 94 -3 24 -7 61 -10 82 -3 22 -7 56 -10 77 -18 147 -21 173
-45 337 -12 77 -23 149 -25 160 -2 11 -7 40 -10 65 -3 25 -7 56 -9 70 -8 42
-25 143 -30 175 -3 17 -19 102 -35 190 -17 88 -33 176 -36 195 -3 19 -10 49
-14 65 -5 17 -12 48 -16 70 -12 67 -15 85 -30 149 -8 33 -16 72 -19 86 -56
296 -240 972 -376 1385 -144 436 -180 536 -358 980 -140 352 -398 882 -620
1275 -36 63 -76 135 -90 160 -88 156 -234 398 -366 603 -55 87 -108 169 -116
182 -43 69 -392 571 -427 615 -6 8 -62 83 -124 165 -62 83 -131 173 -153 201
-23 29 -72 92 -111 140 -127 163 -493 599 -560 670 -5 6 -48 53 -95 104 -286
316 -734 769 -950 962 -121 107 -195 174 -209 188 -14 13 -274 238 -326 282
-36 30 -260 212 -295 240 -19 15 -80 62 -135 106 -183 143 -510 386 -665 492
-85 58 -197 135 -249 171 -85 58 -281 182 -549 348 -242 150 -619 358 -1007
556 -225 115 -329 166 -565 273 -290 131 -645 279 -855 357 -55 20 -134 49
-175 65 -451 175 -1302 427 -1810 536 -91 20 -190 42 -220 50 -44 11 -247 49
-535 99 -16 2 -41 7 -55 10 -14 3 -81 14 -149 26 -69 11 -127 22 -130 24 -3 1
-35 6 -71 10 -36 3 -72 8 -80 10 -8 2 -40 7 -70 10 -30 3 -62 8 -70 10 -8 2
-44 7 -80 10 -36 3 -72 8 -80 10 -13 3 -87 11 -185 20 -16 2 -59 6 -95 9 -36
4 -85 8 -110 11 -25 2 -72 6 -105 10 -179 16 -384 29 -675 41 -142 6 -788 12
-793 8z m2033 -284 c0 9 3 11 8 4 4 -6 43 -11 87 -12 44 -2 91 -4 105 -7 14
-2 68 -7 120 -10 52 -4 98 -9 101 -11 4 -2 24 -6 45 -9 22 -3 77 -14 124 -25
47 -10 103 -21 125 -25 67 -10 466 -85 531 -100 34 -8 73 -16 85 -19 13 -2 47
-10 74 -16 28 -6 57 -13 65 -15 288 -67 444 -109 801 -213 370 -109 1155 -419
1682 -666 55 -25 101 -46 104 -46 16 0 729 -364 908 -463 50 -28 115 -64 145
-80 30 -17 72 -41 93 -54 21 -13 53 -32 70 -42 38 -21 136 -78 157 -91 734
-450 1107 -708 1665 -1156 167 -133 235 -190 435 -366 325 -285 762 -718 934
-924 30 -36 35 -55 9 -31 -10 8 -20 16 -23 16 -16 0 -39 15 -45 29 -5 13 -1
12 17 -4 l23 -19 -19 22 c-10 13 -22 20 -27 18 -4 -3 -54 41 -111 97 -57 57
-77 78 -43 48 34 -30 -25 31 -130 135 -220 219 -334 325 -604 565 -72 63 -407
344 -486 406 -537 426 -970 732 -1489 1052 -201 124 -572 342 -581 342 -2 0
-30 15 -62 34 -133 77 -530 280 -748 383 -626 295 -1325 565 -1940 747 -104
31 -203 60 -220 65 -43 14 -407 113 -425 116 -9 2 -92 21 -185 44 -183 43
-298 70 -330 77 -11 2 -31 6 -45 9 -69 15 -262 52 -310 60 -19 3 -51 10 -70
15 -20 5 -51 12 -70 14 -19 3 -74 12 -123 21 -48 8 -104 18 -125 21 -20 3 -46
7 -57 8 -11 2 -76 12 -145 21 -69 10 -129 22 -135 28 -7 7 -6 8 3 3 7 -4 12
-2 12 6 0 9 3 9 10 -2 9 -13 10 -13 10 0z m-62 -7 c-10 -2 -26 -2 -35 0 -10 3
-2 5 17 5 19 0 27 -2 18 -5z m8112 -3988 c13 -14 21 -25 18 -25 -2 0 -15 11
-28 25 -13 14 -21 25 -18 25 2 0 15 -11 28 -25z m120 -112 c0 -8 -9 0 -50 45
l-45 47 48 -45 c26 -24 47 -45 47 -47z m-355 -483 c10 -11 16 -20 13 -20 -3 0
-13 9 -23 20 -10 11 -16 20 -13 20 3 0 13 -9 23 -20z m1160 -346 c27 -29 148
-165 190 -214 51 -59 61 -71 145 -170 30 -36 57 -67 61 -70 43 -39 418 -533
583 -768 245 -348 571 -883 789 -1294 101 -190 141 -264 148 -278 14 -24 224
-459 254 -525 287 -629 472 -1106 663 -1710 86 -271 192 -644 227 -794 6 -25
36 -144 41 -161 6 -23 95 -412 100 -440 3 -14 21 -104 41 -200 36 -178 38
-192 46 -245 3 -16 12 -68 21 -115 8 -47 18 -103 21 -125 3 -22 9 -65 15 -95
5 -30 11 -73 14 -95 3 -22 8 -53 11 -70 6 -41 33 -239 40 -300 3 -27 8 -63 10
-80 9 -64 31 -274 50 -480 12 -134 15 -166 21 -262 3 -56 8 -119 9 -140 2 -21
7 -117 10 -213 4 -96 9 -178 12 -182 2 -5 -1 -8 -6 -8 -7 0 -12 29 -13 73 0
39 -2 83 -3 97 -2 14 -6 75 -9 135 -4 61 -9 128 -11 150 -4 42 -11 121 -20
245 -3 41 -8 82 -10 90 -2 8 -7 52 -10 97 -3 46 -8 91 -10 102 -2 10 -6 54
-10 97 -3 43 -8 86 -11 94 -2 8 -6 35 -9 60 -15 137 -22 196 -30 240 -3 14 -7
45 -10 70 -3 25 -9 70 -15 100 -5 30 -11 71 -14 90 -6 42 -17 107 -21 129 -1
9 -6 36 -10 61 -8 52 -8 49 -35 195 -30 156 -65 324 -110 521 -21 93 -41 181
-44 195 -7 34 -60 237 -107 414 -55 206 -97 350 -174 600 -26 83 -55 177 -65
210 -39 128 -172 494 -269 743 -109 278 -254 614 -391 907 -52 112 -289 586
-299 600 -5 6 -34 60 -66 120 -134 256 -435 773 -534 920 -38 55 -76 122 -64
110 6 -5 59 -80 118 -165 97 -140 154 -215 113 -149 -167 269 -375 579 -584
869 -29 41 -69 98 -89 127 -19 29 -41 58 -48 65 -14 16 -44 55 -157 203 -101
133 -318 401 -380 470 -25 28 -65 75 -90 104 -25 29 -60 70 -77 90 -18 20 -33
39 -33 44 0 4 17 -12 38 -35 20 -24 42 -48 47 -54z m1126 -1541 c13 -16 12
-17 -3 -4 -17 13 -22 21 -14 21 2 0 10 -8 17 -17z m-24550 -1736 c-10 -9 -11
-8 -5 6 3 10 9 15 12 12 3 -3 0 -11 -7 -18z m26309 -1252 c0 -5 -5 -3 -10 5
-5 8 -10 20 -10 25 0 6 5 3 10 -5 5 -8 10 -19 10 -25z m638 -4637 c0 -131 -6
-117 -10 24 -2 53 0 94 3 92 4 -2 7 -54 7 -116z m-1 -150 c-3 -8 -6 -5 -6 6
-1 11 2 17 5 13 3 -3 4 -12 1 -19z m-694 -276 c-1 -53 -2 -121 -2 -149 -1 -29
-5 -53 -11 -53 -5 0 -8 15 -6 33 3 17 5 85 5 150 1 64 4 117 9 117 4 0 6 -44
5 -98z m924 -142 c-1 -21 -10 -18 -13 5 -1 8 2 15 6 15 5 0 8 -9 7 -20z m-284
-1241 c-5 -5 -7 7 -4 29 5 34 6 35 9 8 2 -16 0 -32 -5 -37z m-810 -744 c-3 -9
-8 -14 -10 -11 -3 3 -2 9 2 15 9 16 15 13 8 -4z m1214 -107 c-3 -8 -6 -5 -6 6
-1 11 2 17 5 13 3 -3 4 -12 1 -19z m-1 -57 c-5 -7 -8 -35 -21 -156 -6 -59 -14
-124 -36 -275 -11 -74 -22 -153 -25 -175 -14 -101 -99 -508 -140 -670 -89
-351 -270 -923 -362 -1145 -6 -14 -27 -70 -47 -125 -20 -55 -47 -127 -60 -160
-105 -271 -148 -376 -151 -373 -1 2 15 51 37 108 117 306 272 772 376 1129 35
124 67 232 69 241 2 8 24 94 49 190 46 177 120 484 129 530 5 27 35 168 40
185 2 6 6 28 10 50 4 22 14 72 21 110 8 39 16 81 19 95 2 14 11 63 20 110 8
47 18 99 21 115 2 17 7 39 9 50 2 11 7 45 12 75 4 30 9 58 10 63 1 4 2 16 3
28 0 11 6 17 11 14 6 -4 8 -10 6 -14z m-853 -3116 c-3 -9 -8 -14 -10 -11 -3 3
-2 9 2 15 9 16 15 13 8 -4z m-62 -148 c-10 -9 -11 -8 -5 6 3 10 9 15 12 12 3
-3 0 -11 -7 -18z m-20 -54 c-12 -20 -14 -14 -5 12 4 9 9 14 11 11 3 -2 0 -13
-6 -23z m-18 -48 c-3 -9 -8 -14 -10 -11 -3 3 -2 9 2 15 9 16 15 13 8 -4z m-22
-52 c-12 -20 -14 -14 -5 12 4 9 9 14 11 11 3 -2 0 -13 -6 -23z m-20 -50 c-12
-20 -14 -14 -5 12 4 9 9 14 11 11 3 -2 0 -13 -6 -23z m-79 -194 c-38 -90 -76
-180 -85 -199 -8 -19 -30 -69 -48 -110 -32 -75 -70 -157 -177 -385 -140 -298
-430 -850 -554 -1054 -21 -34 -38 -65 -38 -66 0 -7 -231 -387 -293 -483 -204
-317 -466 -692 -656 -942 -91 -120 -528 -670 -541 -680 -3 -3 -63 -71 -132
-151 -70 -81 -133 -153 -140 -160 -7 -8 -67 -72 -133 -144 -184 -200 -222
-240 -341 -359 -187 -187 -454 -446 -459 -446 -3 0 -27 -22 -55 -49 -27 -27
-50 -46 -50 -43 0 3 -18 -14 -40 -38 -22 -24 -40 -41 -40 -37 0 3 -13 -7 -28
-21 -70 -67 -145 -132 -152 -132 -5 0 -10 -3 -12 -8 -1 -4 -46 -43 -98 -87
-52 -44 -97 -82 -100 -85 -21 -22 -271 -223 -406 -326 -29 -23 -50 -44 -46
-48 4 -4 2 -6 -3 -5 -17 5 -56 -21 -49 -33 4 -6 3 -8 -3 -5 -14 9 -55 -22 -47
-35 4 -7 2 -8 -5 -4 -15 10 -43 -13 -34 -28 3 -6 3 -8 -2 -4 -10 9 -47 -10
-40 -21 2 -5 -3 -8 -13 -7 -9 0 -16 -4 -15 -10 1 -7 -5 -11 -15 -10 -9 0 -17
-6 -17 -14 0 -8 -7 -15 -15 -15 -21 0 -71 -35 -65 -45 3 -5 0 -12 -6 -16 -8
-4 -9 -3 -5 4 12 20 -4 14 -50 -19 -24 -18 -41 -36 -38 -40 3 -5 -3 -6 -12 -2
-14 5 -16 3 -11 -11 4 -11 3 -15 -4 -11 -13 8 -92 -43 -84 -54 2 -5 -3 -8 -13
-7 -9 0 -16 -5 -14 -12 1 -8 -2 -11 -9 -6 -6 3 -14 2 -18 -3 -3 -5 -30 -24
-58 -42 -30 -18 -50 -38 -46 -44 3 -6 1 -7 -5 -3 -6 3 -93 -46 -194 -110 -398
-254 -446 -283 -668 -406 -25 -14 -117 -66 -205 -115 -164 -92 -538 -283 -520
-265 9 9 32 22 195 110 68 37 496 286 565 329 34 21 126 76 240 143 115 67
515 356 515 372 0 5 5 6 10 3 6 -3 10 -3 10 2 0 4 44 37 97 73 80 54 433 308
468 337 6 5 28 22 50 38 67 50 368 286 405 319 20 17 55 47 80 66 24 19 48 40
54 45 6 6 40 35 76 65 36 30 70 60 76 65 6 6 37 33 70 60 370 315 959 893
1304 1280 29 33 56 62 59 65 6 5 162 184 267 305 580 673 1232 1613 1702 2455
200 358 499 961 640 1290 70 164 86 199 89 197 2 -2 -28 -78 -65 -168z m-1932
-2463 c0 -2 -8 -10 -17 -17 -16 -13 -17 -12 -4 4 13 16 21 21 21 13z m-30 -40
c0 -2 -8 -10 -17 -17 -16 -13 -17 -12 -4 4 13 16 21 21 21 13z m-5375 -5116
c-3 -5 -12 -10 -18 -10 -7 0 -6 4 3 10 19 12 23 12 15 0z m-99 -45 c-11 -8
-25 -15 -30 -15 -6 1 0 7 14 15 32 19 40 18 16 0z m-46 -19 c0 -2 -7 -7 -16
-10 -8 -3 -12 -2 -9 4 6 10 25 14 25 6z m-40 -20 c0 -2 -7 -7 -16 -10 -8 -3
-12 -2 -9 4 6 10 25 14 25 6z m-41 -21 c-9 -8 -79 -35 -79 -30 0 3 15 11 33
19 32 15 54 20 46 11z"/>
<path d="M27770 23401 c5 -11 15 -23 21 -27 6 -3 3 5 -6 20 -20 30 -30 35 -15
7z"/>
<path d="M5914 18495 c-2 -5 -3 -1018 -2 -2250 l3 -2240 455 0 455 0 3 898 c2
707 5 897 15 898 6 1 116 2 242 3 l230 1 5 -900 5 -900 455 0 455 0 0 2250 0
2250 -457 0 -458 0 0 -962 0 -963 -245 0 -245 0 -2 962 -3 963 -454 0 c-295 0
-455 -3 -457 -10z"/>
<path d="M8610 16255 l0 -2250 855 0 c753 0 856 2 860 15 2 8 9 44 15 80 6 36
20 108 30 160 10 52 21 111 24 130 3 19 8 49 11 65 11 59 45 241 50 265 3 14
8 41 11 60 3 19 8 42 10 50 3 13 -54 15 -469 15 l-472 0 0 483 c0 266 2 486 5
490 3 4 169 7 370 7 l365 0 2 388 2 387 -372 0 -372 0 1 523 c1 287 2 527 3
533 1 8 140 11 486 10 425 -1 485 1 485 14 0 17 -21 136 -44 250 -8 41 -17 91
-20 110 -9 54 -26 140 -31 160 0 3 -4 27 -9 53 -4 27 -9 57 -12 68 -2 10 -6
28 -8 38 -3 11 -8 41 -11 68 -4 26 -11 55 -16 63 -7 13 -115 15 -878 15 l-871
0 0 -2250z"/>
<path d="M10828 18490 c-2 -8 -4 -1021 -3 -2250 l0 -2235 440 -1 c242 0 445 1
450 3 7 2 10 247 10 719 l0 715 59 -3 60 -3 27 -90 c49 -163 307 -1017 357
-1180 l48 -160 465 0 465 -1 -22 71 c-28 88 -36 110 -260 793 -102 310 -184
565 -182 567 2 1 28 5 58 9 132 14 230 83 289 201 12 24 22 46 22 47 0 2 6 25
14 53 13 42 15 201 12 1185 l-3 1135 -22 68 c-65 193 -174 296 -370 349 -75
20 -100 21 -994 22 -813 1 -917 0 -920 -14z m1383 -786 c15 -7 29 -24 33 -36
7 -29 8 -1425 0 -1453 -12 -45 -35 -49 -281 -50 -152 0 -233 3 -234 10 -3 23
-5 1531 -2 1536 1 4 105 7 230 7 171 0 235 -4 254 -14z"/>
<path d="M13635 18500 c-2 -3 -21 -70 -44 -150 -22 -80 -74 -264 -115 -410
-41 -145 -71 -267 -66 -270 4 -3 139 -5 299 -4 l291 1 0 -321 c0 -177 2 -1000
3 -1831 l2 -1510 458 0 457 0 0 1831 0 1831 296 -1 c163 -1 297 2 299 5 2 3
-21 97 -51 210 -31 112 -57 211 -59 219 -1 8 -10 42 -19 75 -9 33 -18 67 -20
75 -2 8 -14 51 -25 95 -12 44 -24 91 -27 104 -13 60 54 56 -849 56 -455 0
-828 -2 -830 -5z"/>
<path d="M16275 18499 c-231 -25 -361 -108 -446 -286 -62 -129 -59 -49 -58
-1947 0 -1842 -1 -1787 46 -1916 69 -186 255 -315 487 -337 96 -9 1185 -9
1266 1 99 11 148 25 235 67 172 82 266 229 291 454 8 81 8 3440 -1 3496 -21
134 -78 252 -163 337 -44 44 -141 94 -217 111 -27 6 -61 14 -75 17 -34 8
-1291 11 -1365 3z m877 -795 c18 -10 29 -25 33 -47 3 -17 4 -660 3 -1428 -3
-1292 -4 -1398 -20 -1415 -15 -18 -34 -19 -225 -18 -114 1 -216 2 -225 3 -43
3 -42 -20 -43 1436 -1 765 2 1404 7 1420 16 60 27 63 245 63 147 -1 205 -4
225 -14z"/>
<path d="M18935 18502 c-65 -5 -170 -35 -218 -62 -121 -67 -210 -203 -234
-359 -4 -25 -7 -831 -7 -1791 1 -1721 1 -1746 21 -1840 60 -280 198 -394 523
-436 90 -12 1711 -11 1718 1 4 5 7 589 7 1298 l0 1287 -437 0 -438 0 -2 -887
-3 -888 -212 0 c-225 1 -256 6 -267 49 -3 11 -6 633 -6 1381 0 1326 1 1361 20
1385 l19 25 508 2 c279 1 512 2 517 2 4 1 5 9 1 19 -3 9 -15 67 -26 127 -10
61 -21 124 -24 140 -3 17 -12 64 -20 105 -19 93 -21 104 -30 160 -4 25 -9 54
-11 65 -2 11 -11 58 -20 105 -8 47 -17 92 -19 100 -4 13 -87 15 -667 15 -365
0 -676 -1 -693 -3z"/>
<path d="M21100 18450 c-4 -687 1 -4434 5 -4439 4 -3 389 -6 856 -6 l849 0 9
50 c6 28 17 87 26 133 8 45 22 117 30 160 8 42 17 95 21 117 3 22 21 115 38
208 29 146 31 167 17 168 -9 0 -221 1 -472 1 l-456 1 0 488 c0 436 2 488 16
491 9 2 175 4 369 3 305 0 353 2 357 15 2 8 4 183 3 388 l0 372 -373 0 -372 0
0 533 1 534 475 0 c262 1 482 2 489 2 14 1 11 47 -8 121 -5 19 -11 51 -14 70
-4 32 -29 168 -41 230 -3 14 -18 99 -35 190 -17 91 -34 178 -38 195 l-8 30
-872 0 -872 0 0 -55z"/>
<path d="M23316 18490 c-2 -8 -4 -1021 -3 -2250 l2 -2235 415 0 415 0 0 932
c0 512 1 931 2 929 1 -1 19 -65 39 -141 45 -173 164 -635 168 -655 2 -8 29
-112 59 -230 31 -118 81 -314 112 -435 59 -230 93 -360 100 -385 4 -13 64 -15
465 -15 453 0 460 0 461 20 0 11 1 1022 2 2248 1 1478 -1 2227 -8 2228 -5 1
-214 2 -462 3 l-453 1 0 -615 c-1 -1086 -1 -1175 -5 -1165 -4 9 -60 224 -70
265 -2 8 -26 103 -54 210 -48 189 -199 780 -206 810 -2 8 -13 53 -25 100 -12
47 -24 93 -26 103 -10 42 -14 59 -43 169 -17 65 -31 119 -31 120 0 2 -191 3
-425 3 -370 0 -426 -2 -429 -15z"/>
<path d="M1169 17843 c-1 -20 -5 -46 -14 -80 -3 -13 -2 -23 3 -23 5 0 9 6 9
13 1 23 13 89 19 98 3 5 0 9 -5 9 -6 0 -11 -8 -12 -17z"/>
<path d="M29002 17835 c3 -5 9 -37 13 -70 3 -33 9 -62 12 -65 3 -3 2 24 -2 60
-4 36 -12 70 -17 75 -7 7 -9 7 -6 0z"/>
<path d="M1150 17723 c0 -15 -29 -215 -36 -243 -3 -15 -2 -21 4 -15 10 12 45
255 37 263 -3 3 -5 1 -5 -5z"/>
<path d="M29032 17665 c0 -16 2 -22 5 -12 2 9 2 23 0 30 -3 6 -5 -1 -5 -18z"/>
<path d="M29041 17574 c0 -11 3 -14 6 -6 3 7 2 16 -1 19 -3 4 -6 -2 -5 -13z"/>
<path d="M29052 17480 c0 -14 2 -19 5 -12 2 6 2 18 0 25 -3 6 -5 1 -5 -13z"/>
<path d="M1112 17425 c0 -16 2 -22 5 -12 2 9 2 23 0 30 -3 6 -5 -1 -5 -18z"/>
<path d="M29060 17402 l5 -47 3 39 c2 21 0 42 -5 47 -4 4 -6 -13 -3 -39z"/>
<path d="M1090 17285 c-6 -59 -10 -108 -8 -111 3 -2 11 43 18 101 6 59 10 108
8 111 -3 2 -11 -43 -18 -101z"/>
<path d="M29073 17315 c0 -22 2 -30 4 -17 2 12 2 30 0 40 -3 9 -5 -1 -4 -23z"/>
<path d="M29081 17224 c0 -21 4 -59 9 -84 6 -34 7 -25 3 35 -6 84 -14 115 -12
49z"/>
<path d="M1070 17121 c0 -23 2 -41 4 -41 8 0 12 71 4 76 -4 3 -8 -13 -8 -35z"/>
<path d="M29090 17080 c0 -5 5 -10 11 -10 5 0 7 5 4 10 -3 6 -8 10 -11 10 -2
0 -4 -4 -4 -10z"/>
<path d="M1065 17058 c-8 -27 -11 -78 -4 -78 4 0 9 20 11 45 3 45 1 56 -7 33z"/>
<path d="M1050 16921 c0 -16 -3 -36 -6 -45 -3 -9 -2 -16 3 -16 5 0 10 20 12
45 1 25 -1 45 -4 45 -3 0 -5 -13 -5 -29z"/>
<path d="M1038 16815 c-2 -19 0 -35 4 -35 4 0 8 16 8 35 0 19 -2 35 -4 35 -2
0 -6 -16 -8 -35z"/>
<path d="M1037 16763 c-5 -8 -10 -69 -27 -308 -6 -82 -13 -160 -15 -172 -3
-12 -1 -25 5 -28 6 -4 10 14 11 47 0 29 2 64 3 78 2 14 7 72 10 130 11 165 18
244 23 253 2 4 2 7 -1 7 -3 0 -7 -3 -9 -7z"/>
<path d="M30073 16440 c5 -29 13 -33 13 -5 0 14 -4 25 -8 25 -4 0 -7 -9 -5
-20z"/>
<path d="M990 16230 c0 -5 5 -10 10 -10 6 0 10 5 10 10 0 6 -4 10 -10 10 -5 0
-10 -4 -10 -10z"/>
<path d="M989 16153 c0 -32 -2 -78 -4 -103 -14 -194 -23 -697 -13 -713 4 -7 8
60 9 148 0 88 2 203 4 255 9 271 16 427 21 442 3 9 0 19 -6 23 -6 4 -10 -14
-11 -52z"/>
<path d="M30095 15910 c3 -5 8 -10 11 -10 2 0 4 5 4 10 0 6 -5 10 -11 10 -5 0
-7 -4 -4 -10z"/>
<path d="M964 15255 c-1 -36 1 -63 4 -60 9 9 13 125 4 125 -4 0 -8 -29 -8 -65z"/>
<path d="M966 15049 c2 -72 5 -134 8 -136 3 -3 4 56 3 131 -1 75 -5 136 -8
136 -4 0 -5 -59 -3 -131z"/>
<path d="M965 14890 c3 -5 8 -10 11 -10 2 0 4 5 4 10 0 6 -5 10 -11 10 -5 0
-7 -4 -4 -10z"/>
<path d="M970 14782 l5 -87 3 79 c2 44 -1 83 -5 87 -4 4 -6 -31 -3 -79z"/>
<path d="M29110 14613 c0 -25 2 -44 4 -42 8 10 13 89 5 89 -5 0 -9 -21 -9 -47z"/>
<path d="M29100 14513 c0 -25 2 -44 4 -42 8 10 13 89 5 89 -5 0 -9 -21 -9 -47z"/>
<path d="M29091 14403 c-1 -31 -5 -62 -8 -67 -4 -7 -3 -8 4 -1 12 11 23 125
13 125 -4 0 -8 -26 -9 -57z"/>
<path d="M29082 14295 c0 -16 2 -22 5 -12 2 9 2 23 0 30 -3 6 -5 -1 -5 -18z"/>
<path d="M29072 14215 c0 -16 2 -22 5 -12 2 9 2 23 0 30 -3 6 -5 -1 -5 -18z"/>
<path d="M29933 14010 c0 -25 2 -35 4 -22 2 12 2 32 0 45 -2 12 -4 2 -4 -23z"/>
<path d="M29922 13935 c0 -16 2 -22 5 -12 2 9 2 23 0 30 -3 6 -5 -1 -5 -18z"/>
<path d="M29912 13860 c0 -14 2 -19 5 -12 2 6 2 18 0 25 -3 6 -5 1 -5 -13z"/>
<path d="M29901 13784 c0 -11 3 -14 6 -6 3 7 2 16 -1 19 -3 4 -6 -2 -5 -13z"/>
<path d="M28931 13234 c0 -11 3 -14 6 -6 3 7 2 16 -1 19 -3 4 -6 -2 -5 -13z"/>
<path d="M10035 13041 c-138 -37 -201 -151 -145 -260 26 -52 75 -89 200 -149
130 -62 170 -99 170 -158 0 -70 -54 -119 -141 -127 -95 -9 -176 39 -204 119
-7 22 -20 40 -28 42 -17 3 -44 -42 -42 -68 1 -8 3 -22 3 -31 3 -23 49 -67 97
-92 32 -17 58 -21 135 -21 82 -1 102 3 144 24 72 37 109 88 112 153 5 97 -52
158 -216 232 -149 68 -192 125 -160 210 13 35 32 53 74 70 102 43 200 -17 208
-128 2 -20 6 -37 10 -37 19 0 40 15 53 40 30 57 -9 135 -84 166 -42 18 -145
26 -186 15z"/>
<path d="M10656 13030 c-76 -24 -114 -51 -164 -119 -54 -73 -77 -162 -69 -272
9 -141 85 -257 205 -316 51 -25 68 -28 152 -28 110 1 157 18 230 83 87 77 128
197 117 337 -8 85 -28 143 -71 202 -82 111 -251 159 -400 113z m192 -46 c99
-28 163 -108 186 -232 40 -219 -71 -404 -244 -405 -73 -1 -105 7 -151 38 -84
55 -132 159 -131 281 1 237 146 372 340 318z"/>
<path d="M11547 13044 c-2 -2 -75 -6 -163 -8 -87 -3 -164 -5 -170 -5 -6 -1
-11 -8 -11 -16 0 -10 10 -15 27 -15 57 0 58 -8 58 -325 0 -322 -2 -335 -59
-335 -23 0 -30 -4 -27 -16 3 -15 20 -17 127 -18 98 -1 128 2 140 14 13 13 10
16 -28 21 -70 9 -75 20 -76 174 0 85 3 135 10 136 46 6 125 3 148 -4 15 -5 34
-21 41 -35 l13 -26 27 27 c28 28 34 68 13 85 -7 7 -66 13 -133 14 l-119 3 0
118 c0 96 3 121 16 133 37 33 197 38 249 7 31 -18 50 -51 50 -88 0 -18 5 -25
20 -25 18 0 47 36 42 52 -1 4 5 5 13 2 9 -4 25 6 39 23 36 43 137 68 174 44
11 -6 14 -70 15 -306 l1 -298 -23 -18 c-13 -11 -36 -19 -52 -19 -19 0 -29 -5
-29 -15 0 -18 -8 -17 146 -18 66 0 126 3 132 7 23 14 12 26 -23 26 -22 0 -43
8 -55 20 -19 19 -20 33 -20 306 0 165 4 293 10 303 8 15 20 18 62 16 78 -3
106 -18 126 -66 14 -33 20 -38 29 -28 21 25 26 98 8 125 l-15 24 -256 -3
c-235 -2 -257 -3 -269 -20 -13 -18 -14 -18 -42 2 -20 15 -47 22 -95 25 -37 2
-69 2 -71 0z"/>
<path d="M13721 13039 l-24 -10 23 -21 c41 -39 17 -112 -144 -437 -42 -84 -79
-170 -82 -191 -11 -68 39 -110 96 -80 17 9 17 12 3 40 -17 34 -13 63 22 148
l23 57 139 1 c76 1 143 -1 150 -3 16 -6 68 -167 60 -187 -4 -9 -17 -16 -32
-16 -29 0 -33 -15 -7 -27 9 -5 112 -8 227 -7 263 3 245 1 245 19 0 10 -10 15
-34 15 -65 0 -66 8 -66 338 l0 293 31 13 c40 17 132 20 177 5 20 -6 49 -23 65
-37 79 -74 51 -226 -50 -268 -39 -17 -105 -18 -120 -3 -7 7 -12 2 -17 -17 -9
-34 7 -49 65 -58 55 -9 112 -68 174 -184 28 -51 57 -100 65 -107 24 -22 72
-26 97 -10 30 20 29 30 -4 44 -20 8 -46 42 -88 113 -61 102 -114 168 -137 168
-7 0 2 8 21 17 71 35 130 125 125 191 -1 12 -2 32 -3 45 -2 45 -53 106 -111
135 -60 29 -131 33 -335 20 -55 -4 -106 -7 -112 -8 -7 0 -13 -7 -13 -15 0 -10
10 -15 34 -15 59 0 59 -2 59 -326 -1 -334 -1 -334 -75 -334 -47 0 -83 22 -96
58 -14 37 -78 214 -152 417 -78 217 -115 258 -199 224z m185 -411 c5 -17 -5
-18 -116 -18 -67 0 -120 3 -118 8 2 4 19 41 39 82 20 41 49 106 64 143 l28 68
49 -133 c26 -73 51 -141 54 -150z"/>
<path d="M16090 13038 c-80 -22 -138 -88 -146 -167 -9 -93 50 -158 211 -236
154 -73 193 -115 173 -189 -20 -77 -109 -116 -213 -94 -56 12 -119 69 -130
117 -9 40 -23 48 -46 25 -47 -47 -17 -125 63 -169 40 -22 66 -28 131 -31 165
-7 277 69 277 186 0 92 -49 144 -205 219 -113 54 -157 87 -175 131 -37 89 53
182 162 167 71 -10 110 -51 121 -130 6 -48 10 -51 37 -37 43 23 49 100 11 147
-46 56 -178 86 -271 61z"/>
<path d="M16745 13035 c-123 -33 -201 -112 -238 -240 -44 -155 -1 -316 110
-415 75 -67 122 -84 233 -84 84 -1 101 2 152 27 128 63 201 190 200 349 -1
171 -84 303 -224 354 -58 21 -171 26 -233 9z m213 -64 c38 -20 87 -68 114
-111 13 -22 19 -40 35 -100 10 -37 8 -133 -3 -188 -28 -139 -124 -224 -254
-225 -175 -3 -293 163 -268 375 21 177 129 284 276 273 34 -3 79 -13 100 -24z"/>
<path d="M19786 13034 c-128 -40 -212 -139 -237 -280 -32 -182 45 -350 193
-425 135 -68 307 -41 409 64 17 17 45 61 62 97 26 55 32 80 35 156 8 185 -67
322 -206 374 -71 27 -192 33 -256 14z m201 -54 c46 -14 113 -75 139 -125 39
-76 51 -230 23 -313 -34 -104 -108 -175 -200 -192 -170 -32 -306 93 -317 291
-10 172 69 314 193 350 33 9 117 4 162 -11z"/>
<path d="M21297 13034 c-63 -22 -98 -54 -123 -110 -22 -49 -22 -56 -10 -104
19 -74 61 -111 203 -181 148 -73 188 -111 180 -171 -11 -81 -66 -121 -167
-121 -87 0 -152 46 -181 128 -19 52 -49 43 -64 -18 -13 -50 34 -114 103 -143
86 -36 228 -26 303 21 105 67 113 214 14 289 -18 14 -80 48 -137 76 -172 83
-205 130 -163 233 11 26 87 67 123 67 85 0 152 -64 152 -144 0 -42 20 -48 48
-16 51 60 25 138 -61 182 -49 24 -167 31 -220 12z"/>
<path d="M12341 13032 c-21 -7 3 -32 31 -32 55 0 70 -30 148 -308 39 -141 76
-269 82 -285 6 -15 8 -45 4 -67 -6 -42 -4 -45 39 -40 45 4 62 30 130 192 37
90 75 181 85 203 9 22 25 62 35 88 10 26 22 50 26 53 4 2 14 -15 20 -38 16
-53 15 -50 22 -68 14 -37 106 -338 111 -364 3 -17 1 -35 -5 -42 -13 -16 5 -27
45 -26 21 1 38 10 53 29 20 24 112 291 188 545 27 89 56 128 95 128 23 0 21
30 -2 31 -10 0 -65 1 -123 1 -139 0 -135 0 -135 -17 0 -9 6 -15 13 -14 61 8
102 -25 92 -74 -10 -49 -113 -390 -137 -455 -19 -52 -22 -55 -29 -32 -44 154
-163 528 -174 550 -18 35 -27 41 -66 42 -40 1 -60 -19 -37 -36 39 -29 28 -88
-57 -291 -83 -197 -119 -275 -125 -268 -7 8 -50 163 -109 395 -36 138 -31 167
27 168 20 0 34 29 15 31 -27 2 -255 3 -262 1z"/>
<path d="M14918 13032 c-9 -2 -19 -10 -22 -18 -4 -10 3 -14 28 -14 58 0 59 -2
59 -326 0 -323 0 -322 -59 -328 -16 -2 -28 -6 -27 -10 1 -4 3 -12 5 -18 3 -8
61 -11 200 -11 278 0 336 12 363 76 14 33 11 52 -13 80 -21 24 -29 22 -48 -15
-20 -39 -37 -54 -84 -75 -42 -19 -170 -21 -222 -4 l-38 13 0 139 0 139 74 0
c68 0 76 -2 95 -26 19 -24 21 -24 44 -9 31 20 39 48 22 72 -11 15 -30 17 -124
18 l-111 0 0 115 c0 63 4 120 8 125 21 30 153 47 231 31 37 -8 71 -46 77 -88
4 -21 12 -38 19 -38 20 0 44 34 46 66 4 61 -1 74 -33 94 -31 19 -47 20 -253
18 -121 -2 -228 -4 -237 -6z"/>
<path d="M17280 13032 c-24 -8 -9 -32 20 -32 55 0 57 -14 56 -333 -2 -314 -3
-319 -60 -319 -19 0 -26 -6 -26 -19 0 -11 7 -19 18 -20 55 -3 370 1 387 5 11
2 28 5 37 5 9 1 33 16 52 35 28 26 36 41 36 68 0 63 -74 99 -76 37 -3 -61 -66
-99 -172 -103 -67 -3 -109 9 -116 32 -2 10 -4 143 -4 297 0 311 1 315 65 315
23 0 33 5 33 15 0 8 -3 15 -7 16 -27 3 -235 3 -243 1z"/>
<path d="M17840 13032 c-23 -8 -9 -32 19 -32 52 0 55 -11 57 -268 2 -255 2
-260 32 -318 39 -77 110 -114 212 -111 75 3 120 22 179 76 34 31 41 35 42 19
3 -33 4 -36 26 -62 14 -16 34 -26 50 -27 16 0 39 -2 51 -3 13 -2 31 4 40 13
14 15 13 16 -21 19 -66 6 -67 10 -67 342 0 217 3 299 12 308 7 7 27 12 45 12
23 0 33 5 33 15 0 18 10 16 -118 18 -57 1 -112 -1 -123 -5 -25 -10 -15 -28 15
-28 12 0 30 -6 40 -13 17 -12 18 -33 18 -239 0 -250 -2 -258 -68 -322 -49 -47
-110 -70 -173 -64 -65 6 -98 29 -124 86 -19 43 -22 68 -24 274 -2 128 1 237 6
251 8 19 18 26 43 29 20 2 33 8 33 17 0 11 -23 14 -113 15 -61 1 -117 0 -122
-2z"/>
<path d="M18643 13032 c-27 -4 -53 -38 -53 -67 0 -11 7 -31 17 -44 l16 -24 14
27 c7 14 28 33 46 42 43 23 132 30 143 12 5 -7 9 -144 10 -305 1 -274 0 -294
-18 -313 -11 -12 -31 -20 -52 -20 -22 0 -33 -5 -33 -15 0 -18 -9 -16 137 -17
163 0 160 0 154 17 -4 9 -19 15 -39 15 -66 0 -67 5 -67 329 -1 225 2 294 12
306 10 12 26 14 68 11 65 -5 102 -29 118 -75 10 -30 11 -31 27 -13 10 11 17
38 19 67 2 75 2 75 -266 73 -127 -1 -241 -4 -253 -6z"/>
<path d="M19232 13032 c-32 -5 -22 -25 15 -33 16 -3 35 -9 41 -13 9 -5 12 -91
12 -310 0 -281 -1 -304 -18 -319 -10 -10 -28 -17 -39 -17 -24 0 -41 -30 -18
-31 8 0 58 -1 110 -1 128 0 125 0 125 17 0 9 -9 15 -24 15 -32 0 -56 25 -57
58 0 15 -1 150 -1 300 0 295 1 302 53 302 19 0 29 5 29 15 0 8 -3 15 -7 16
-28 3 -202 3 -221 1z"/>
<path d="M20325 13032 c-10 -10 10 -32 29 -32 12 0 31 -6 41 -14 18 -13 20
-30 20 -303 2 -324 -2 -342 -62 -343 -15 0 -23 -6 -23 -17 0 -16 12 -18 121
-17 90 1 124 5 130 15 6 11 0 15 -25 17 -69 6 -70 13 -71 304 l-1 260 23 -29
c13 -15 44 -59 70 -98 153 -225 307 -442 325 -457 25 -22 81 -23 98 -3 8 10 9
15 2 15 -30 0 -34 46 -33 343 1 207 4 304 12 313 6 8 24 14 40 14 19 0 29 5
29 15 0 18 8 17 -115 17 -129 0 -125 0 -125 -17 0 -10 10 -15 29 -15 54 0 56
-10 57 -287 1 -139 -2 -253 -5 -253 -7 1 -115 160 -119 178 -2 6 -8 12 -13 12
-5 0 -9 5 -9 10 0 6 -5 16 -11 23 -6 7 -56 79 -112 162 -64 93 -114 156 -133
167 -28 16 -157 31 -169 20z"/>
<path d="M29416 11884 c-9 -37 -15 -68 -13 -71 3 -2 12 26 21 63 9 37 15 68
13 71 -3 2 -12 -26 -21 -63z"/>
<path d="M29386 11774 c-4 -14 -5 -28 -3 -31 3 -2 8 8 11 23 4 14 5 28 3 31
-3 2 -8 -8 -11 -23z"/>
<path d="M29371 11714 c0 -11 3 -14 6 -6 3 7 2 16 -1 19 -3 4 -6 -2 -5 -13z"/>
<path d="M29345 11629 c-4 -6 -5 -12 -2 -15 2 -3 7 2 10 11 7 17 1 20 -8 4z"/>
<path d="M29001 10589 c-6 -18 -9 -34 -7 -36 2 -2 9 10 15 28 6 18 9 34 7 36
-2 2 -9 -10 -15 -28z"/>
<path d="M28955 10463 c-40 -102 -39 -100 -28 -88 12 13 66 155 61 160 -2 2
-17 -30 -33 -72z"/>
<path d="M27946 10045 c-9 -26 -7 -32 5 -12 6 10 9 21 6 23 -2 3 -7 -2 -11
-11z"/>
<path d="M27876 9885 c-9 -26 -7 -32 5 -12 6 10 9 21 6 23 -2 3 -7 -2 -11 -11z"/>
<path d="M27850 9829 c-7 -11 -10 -23 -7 -25 2 -2 9 7 15 21 14 30 7 33 -8 4z"/>
<path d="M2246 9738 c19 -45 41 -96 48 -112 7 -17 26 -60 41 -96 16 -36 40
-92 56 -125 15 -33 50 -112 79 -175 82 -180 274 -561 378 -750 157 -285 337
-592 483 -825 166 -264 501 -750 687 -995 310 -408 724 -898 1030 -1219 188
-196 591 -594 735 -725 13 -11 64 -58 113 -102 49 -45 132 -118 184 -164 52
-45 109 -94 125 -109 191 -169 591 -481 926 -723 651 -471 1521 -988 2234
-1327 136 -64 47 -13 -165 96 -187 96 -350 184 -535 288 -228 128 -936 571
-1020 638 -5 4 -75 53 -155 108 -317 221 -837 622 -1118 863 -46 39 -366 320
-378 331 -6 5 -67 62 -135 125 -215 199 -752 742 -898 909 -27 31 -155 174
-171 191 -8 9 -33 37 -54 64 -21 26 -46 55 -56 64 -119 118 -648 793 -855
1092 -33 47 -63 90 -68 95 -36 41 -402 599 -462 703 -66 114 -217 359 -247
399 -77 106 -279 456 -418 728 -79 154 -147 287 -151 295 -5 8 -40 83 -79 165
-126 265 -180 375 -185 375 -2 0 12 -37 31 -82z"/>
<path d="M27806 9733 c-6 -14 -5 -15 5 -6 7 7 10 15 7 18 -3 3 -9 -2 -12 -12z"/>
<path d="M27726 9563 c-6 -14 -5 -15 5 -6 7 7 10 15 7 18 -3 3 -9 -2 -12 -12z"/>
<path d="M27656 9423 c-6 -14 -5 -15 5 -6 7 7 10 15 7 18 -3 3 -9 -2 -12 -12z"/>
<path d="M27295 8759 c-4 -6 -5 -12 -2 -15 2 -3 7 2 10 11 7 17 1 20 -8 4z"/>
<path d="M25779 6623 l-24 -28 28 24 c25 23 32 31 24 31 -2 0 -14 -12 -28 -27z"/>
<path d="M25724 6558 l-29 -33 33 29 c17 17 32 31 32 33 0 8 -8 1 -36 -29z"/>
<path d="M25604 6423 c-209 -233 -511 -544 -740 -763 -164 -157 -474 -435
-595 -535 -13 -10 -51 -42 -84 -70 -80 -67 -290 -235 -392 -314 -46 -35 -83
-65 -83 -68 0 -4 51 30 75 50 6 4 56 40 111 80 136 97 115 81 411 302 270 202
284 214 615 560 101 105 105 110 263 281 55 60 107 115 115 124 8 9 35 38 59
66 24 27 65 72 90 99 83 90 252 285 248 285 -3 0 -44 -44 -93 -97z"/>
<path d="M23679 4653 c-13 -16 -12 -17 4 -4 9 7 17 15 17 17 0 8 -8 3 -21 -13z"/>
<path d="M6730 4596 c0 -2 8 -10 18 -17 15 -13 16 -12 3 4 -13 16 -21 21 -21
13z"/>
<path d="M6785 4551 c10 -12 51 -48 90 -79 38 -31 72 -59 75 -62 11 -11 228
-188 305 -247 44 -35 85 -66 90 -71 6 -4 75 -56 155 -116 80 -59 152 -113 160
-119 35 -28 224 -161 341 -240 418 -282 822 -526 1240 -750 259 -138 828 -411
999 -478 41 -17 89 -36 105 -44 204 -93 935 -352 1270 -451 101 -29 512 -144
535 -149 8 -2 38 -9 65 -15 28 -6 60 -14 73 -16 12 -2 62 -14 110 -25 48 -12
94 -22 102 -24 8 -2 33 -8 55 -13 22 -6 87 -20 145 -32 140 -29 141 -29 175
-35 17 -3 50 -10 75 -15 25 -5 61 -12 80 -14 19 -3 94 -16 165 -30 72 -14 144
-27 160 -29 17 -3 41 -8 55 -11 59 -13 210 -30 210 -23 0 2 -36 10 -79 16 -44
7 -88 13 -98 15 -40 7 -90 16 -123 21 -19 3 -69 12 -110 20 -41 8 -91 17 -110
20 -46 8 -371 74 -390 80 -8 2 -28 7 -45 9 -53 10 -543 135 -688 177 -357 102
-1004 315 -1122 369 -11 5 -65 25 -120 45 -425 155 -1102 467 -1620 748 -71
39 -149 81 -172 93 -171 93 -706 416 -883 533 -105 70 -315 215 -320 220 -3 3
-34 26 -70 50 -127 87 -498 368 -700 529 -113 91 -196 155 -185 143z"/>
<path d="M8820 3906 c0 -2 7 -7 16 -10 8 -3 12 -2 9 4 -6 10 -25 14 -25 6z"/>
<path d="M8860 3886 c0 -3 9 -10 20 -16 11 -6 20 -8 20 -6 0 3 -9 10 -20 16
-11 6 -20 8 -20 6z"/>
<path d="M8940 3837 c11 -12 243 -147 247 -143 2 2 -49 34 -114 72 -113 66
-144 83 -133 71z"/>
<path d="M9215 3677 c34 -23 212 -121 370 -202 83 -43 155 -81 160 -85 19 -13
208 -91 212 -87 2 2 -22 17 -54 32 -166 79 -460 230 -630 321 -63 34 -94 45
-58 21z"/>
<path d="M8960 2906 c0 -2 7 -7 16 -10 8 -3 12 -2 9 4 -6 10 -25 14 -25 6z"/>
<path d="M20405 2849 c-157 -62 -659 -232 -853 -289 -61 -18 -110 -35 -109
-37 2 -2 46 8 98 22 52 14 102 28 112 30 50 11 600 180 652 200 33 13 116 44
185 69 69 25 115 45 103 46 -13 0 -23 5 -23 10 0 14 2 15 -165 -51z"/>
<path d="M9066 2845 c10 -8 23 -15 28 -15 6 0 1 7 -10 15 -10 8 -23 15 -28 15
-6 0 -1 -7 10 -15z"/>
<path d="M22025 2830 c-3 -6 1 -7 9 -4 18 7 21 14 7 14 -6 0 -13 -4 -16 -10z"/>
<path d="M9110 2826 c0 -6 113 -67 117 -62 2 1 -24 17 -57 35 -33 18 -60 30
-60 27z"/>
<path d="M9265 2740 c17 -11 35 -20 40 -20 6 0 -5 9 -23 20 -42 26 -56 26 -17
0z"/>
<path d="M9320 2715 c0 -3 60 -35 133 -72 144 -74 167 -84 167 -78 0 2 -67 38
-150 80 -82 41 -150 73 -150 70z"/>
<path d="M21615 2620 c-3 -6 1 -7 9 -4 18 7 21 14 7 14 -6 0 -13 -4 -16 -10z"/>
<path d="M21560 2595 c-14 -8 -20 -14 -15 -14 6 0 21 6 35 14 14 8 21 14 15
14 -5 0 -21 -6 -35 -14z"/>
<path d="M21455 2545 c-38 -18 -67 -34 -63 -34 10 -1 138 58 138 64 0 7 6 9
-75 -30z"/>
<path d="M9735 2505 c171 -85 496 -228 501 -222 3 3 -5 8 -18 12 -12 5 -54 22
-93 40 -38 18 -104 47 -145 65 -41 18 -135 61 -208 96 -74 35 -137 64 -140 63
-4 0 43 -25 103 -54z"/>
<path d="M19386 2511 c-3 -4 6 -6 19 -3 14 2 25 6 25 8 0 8 -39 4 -44 -5z"/>
<path d="M21360 2500 c-9 -6 -10 -10 -3 -10 6 0 15 5 18 10 8 12 4 12 -15 0z"/>
<path d="M21320 2480 c-9 -6 -10 -10 -3 -10 6 0 15 5 18 10 8 12 4 12 -15 0z"/>
<path d="M21280 2460 c-9 -6 -10 -10 -3 -10 6 0 15 5 18 10 8 12 4 12 -15 0z"/>
<path d="M21230 2440 c-8 -5 -10 -10 -5 -10 6 0 17 5 25 10 8 5 11 10 5 10 -5
0 -17 -5 -25 -10z"/>
<path d="M10290 2255 c25 -13 52 -24 60 -24 8 -1 -9 10 -38 24 -68 32 -81 32
-22 0z"/>
<path d="M9477 2239 c7 -7 15 -10 18 -7 3 3 -2 9 -12 12 -14 6 -15 5 -6 -5z"/>
<path d="M9517 2219 c7 -7 15 -10 18 -7 3 3 -2 9 -12 12 -14 6 -15 5 -6 -5z"/>
<path d="M10373 2224 c13 -13 400 -165 411 -161 6 2 -14 12 -44 22 -30 10
-109 40 -175 68 -139 57 -202 80 -192 71z"/>
<path d="M9630 2166 c0 -2 7 -7 16 -10 8 -3 12 -2 9 4 -6 10 -25 14 -25 6z"/>
<path d="M9700 2135 c0 -8 375 -187 625 -298 303 -135 747 -311 960 -382 259
-85 681 -207 795 -229 14 -3 59 -12 100 -20 41 -8 86 -17 100 -19 14 -3 81
-16 150 -30 69 -14 143 -28 165 -31 23 -4 52 -9 65 -11 14 -3 45 -7 70 -10 49
-4 12 5 -290 76 -96 23 -188 45 -205 50 -37 12 -251 69 -274 74 -69 15 -626
186 -811 250 -253 88 -668 244 -889 335 -114 47 -502 219 -543 241 -10 6 -18
7 -18 4z"/>
<path d="M10848 2034 c28 -13 64 -26 80 -29 15 -3 -7 8 -48 24 -89 37 -107 39
-32 5z"/>
<path d="M16155 2011 c-66 -3 -242 -6 -392 -6 -323 0 -343 -4 -103 -22 136
-10 234 -7 485 12 22 1 64 4 93 6 28 1 52 6 52 11 0 4 -3 7 -7 6 -5 -1 -62 -4
-128 -7z"/>
<path d="M10970 1990 c8 -5 20 -10 25 -10 6 0 3 5 -5 10 -8 5 -19 10 -25 10
-5 0 -3 -5 5 -10z"/>
<path d="M11098 1944 c51 -18 105 -36 120 -39 15 -3 -22 12 -83 35 -60 22
-114 40 -120 39 -5 0 32 -16 83 -35z"/>
<path d="M11260 1890 c8 -5 22 -9 30 -9 10 0 8 3 -5 9 -27 12 -43 12 -25 0z"/>
<path d="M11335 1865 c17 -8 37 -14 45 -14 8 0 -1 7 -20 14 -46 18 -64 17 -25
0z"/>
<path d="M11690 1756 c0 -2 7 -7 16 -10 8 -3 12 -2 9 4 -6 10 -25 14 -25 6z"/>
<path d="M11828 1713 c7 -3 16 -2 19 1 4 3 -2 6 -13 5 -11 0 -14 -3 -6 -6z"/>
<path d="M19675 1660 c-3 -6 1 -7 9 -4 18 7 21 14 7 14 -6 0 -13 -4 -16 -10z"/>
<path d="M19595 1640 c-16 -7 -17 -9 -3 -9 9 -1 20 4 23 9 7 11 7 11 -20 0z"/>
<path d="M19520 1624 c-45 -15 -221 -63 -250 -69 -8 -2 -71 -18 -140 -35 -69
-18 -136 -34 -150 -37 -14 -2 -65 -13 -115 -25 -177 -40 -220 -50 -254 -54
-19 -2 -37 -6 -41 -9 -3 -2 -33 -9 -66 -14 -32 -6 -70 -13 -84 -16 -29 -6
-119 -22 -170 -30 -19 -3 -73 -12 -120 -21 -47 -9 -96 -17 -110 -19 -41 -5
-104 -15 -130 -20 -14 -3 -45 -8 -70 -11 -25 -3 -56 -7 -70 -9 -14 -2 -45 -7
-70 -10 -25 -3 -56 -8 -70 -10 -14 -2 -56 -7 -95 -11 -38 -4 -72 -8 -75 -9 -3
-1 -41 -5 -85 -9 -44 -5 -88 -10 -97 -12 -9 -1 -48 -5 -85 -9 -37 -3 -84 -8
-103 -10 -19 -2 -66 -7 -105 -10 -38 -4 -90 -8 -114 -10 -25 -3 -92 -7 -150
-10 -58 -4 -131 -8 -161 -10 -214 -15 -493 -20 -1012 -19 -329 0 -598 -3 -598
-8 0 -4 15 -8 33 -9 17 -1 55 -3 82 -4 395 -25 1197 -25 1515 0 25 2 86 6 135
9 174 11 326 24 480 41 28 3 70 8 95 11 25 2 61 6 80 9 19 3 55 7 80 10 25 3
56 7 70 10 14 3 48 7 75 10 28 3 75 10 105 15 30 6 75 13 100 16 50 6 64 8
148 23 31 5 73 12 92 15 42 6 237 43 300 56 25 5 56 12 70 14 24 4 320 70 390
87 19 4 67 15 105 24 39 9 78 18 88 21 9 2 25 6 35 8 186 43 543 143 557 157
11 11 12 11 -45 -7z"/>
<path d="M13639 1457 c5 -5 19 -7 32 -5 20 3 19 5 -9 9 -20 3 -29 2 -23 -4z"/>
<path d="M13707 1449 c7 -7 15 -10 18 -7 3 3 -2 9 -12 12 -14 6 -15 5 -6 -5z"/>
<path d="M13800 1436 c0 -2 9 -6 20 -9 11 -3 18 -1 14 4 -5 9 -34 13 -34 5z"/>
<path d="M14708 1123 c7 -3 16 -2 19 1 4 3 -2 6 -13 5 -11 0 -14 -3 -6 -6z"/>
<path d="M14741 1116 c9 -9 179 -14 179 -5 0 5 -41 9 -92 9 -50 0 -89 -2 -87
-4z"/>
</g>
</svg>
